# AST/ASF file generated using VICON BodyLanguage
# -----------------------------------------------
:version 1.10
:name VICON
:units
  mass 1.0
  length 0.45
  angle deg
:documentation
   .ast/.asf automatically generated from VICON data using
   VICON BodyBuilder and BodyLanguage model FoxedUp or BRILLIANT.MOD
:root
   order TX TY TZ RX RY RZ
   axis XYZ
   position 0 0 0  
   orientation 0 0 0 
:bonedata
  begin
     id 1 
     name lhipjoint
     direction 0.716248 -0.617586 0.324924 
     length 2.63557 
     axis 0 0 0  XYZ
  end
  begin
     id 2 
     name lfemur
     direction 0.34202 -0.939693 0  
     length 7.01235  
     axis 0 0 20  XYZ
    dof rx ry rz
    limits (-160.0 20.0)
           (-70.0 70.0)
           (-60.0 70.0)
  end
  begin
     id 3 
     name ltibia
     direction 0.34202 -0.939693 0   
     length 8.14348   
     axis 0 0 20   XYZ
    dof rx
    limits (-10.0 170.0)
  end
  begin
     id 4 
     name lfoot
     direction 0.0982064 -0.26982 0.95789   
     length 1.99077   
     axis -90 7.62852e-016 20   XYZ
    dof rx rz
    limits (-45.0 90.0)
           (-70.0 20.0)
  end
  begin
     id 5 
     name ltoes
     direction 1.53511e-011 -4.21891e-011 1   
     length 0.99735   
     axis -90 7.62852e-016 20   XYZ
    dof rx
    limits (-90.0 20.0)
  end
  begin
     id 6 
     name rhipjoint
     direction -0.687828 -0.642391 0.337975   
     length 2.5338  
     axis 0 0 0  XYZ 
  end
  begin
     id 7 
     name rfemur
     direction -0.34202 -0.939693 0   
     length 6.90199   
     axis 0 0 -20   XYZ
    dof rx ry rz
    limits (-160.0 20.0)
           (-70.0 70.0)
           (-70.0 60.0)
  end
  begin
     id 8 
     name rtibia
     direction -0.34202 -0.939693 0   
     length 8.07725   
     axis 0 0 -20   XYZ
    dof rx
    limits (-10.0 170.0)
 end
 begin
     id 9 
     name rfoot
     direction -0.0912384 -0.250675 0.963762   
     length 2.11621  
     axis -90 -7.62852e-016 -20   XYZ
    dof rx rz
    limits (-45.0 90.0)
           (-20.0 70.0)
  end
  begin
     id 10 
     name rtoes
     direction -1.5359e-011 -4.21894e-011 1   
     length 1.06031   
     axis -90 -7.62852e-016 -20   XYZ
    dof rx
    limits (-90.0 20.0)
  end
  begin
     id 11 
     name lowerback
     direction -0.0403572 0.987953 -0.149396   
     length 2.05637   
     axis 0 0 0   XYZ
    dof rx ry rz
    limits (-20.0 45.0)
           (-30.0 30.0)
           (-30.0 30.0)
  end
  begin
     id 12 
     name upperback
     direction -0.00512151 0.997598 0.0690792   
     length 2.01086   
     axis 0 0 0   XYZ
    dof rx ry rz
    limits (-20.0 45.0)
           (-30.0 30.0)
           (-30.0 30.0)
  end
  begin
     id 13 
     name thorax
     direction 0.0136133 0.989392 0.14463   
     length 2.09035   
     axis 0 0 0   XYZ
    dof rx ry rz
    limits (-20.0 45.0)
           (-30.0 30.0)
           (-30.0 30.0)
  end
  begin
     id 14 
     name lowerneck
     direction 0.0250714 0.992811 0.11704   
     length 1.70806   
     axis 0 0 0   XYZ
    dof rx ry rz
    limits (-20.0 45.0)
           (-30.0 30.0)
           (-30.0 30.0)
  end
  begin
     id 15 
     name upperneck
     direction -0.0519205 0.998394 -0.0226787   
     length 1.6689   
     axis 0 0 0   XYZ
    dof rx ry rz
    limits (-20.0 45.0)
           (-30.0 30.0)
           (-30.0 30.0)
  end
  begin
     id 16
     name head
     direction -0.0201693 0.999547 -0.0223192  
     length 1.83412  
     axis 0 0 0   XYZ
    dof rx ry rz
    limits (-20.0 45.0)
           (-30.0 30.0)
           (-30.0 30.0)
  end
  begin
     id 17 
     name lclavicle
     direction 0.89585 0.444077 -0.0157448  
     length 3.39587  
     axis 0 0 0   XYZ
    dof ry rz
    limits (-20.0 10.0)
           (0.0 20.0)
  end
  begin
     id 18 
     name lhumerus
     direction 1 -4.48956e-011 1.99132e-028   
     length 5.79199   
     axis 180 -30 -90   XYZ
    dof rx ry rz
    limits (-60.0 90.0)
           (-90.0 90.0)
           (-90.0 90.0)
  end
  begin
     id 19
     name lradius
     direction 1 -4.48974e-011 8.72912e-028   
     length 3.49908   
     axis 180 -30 -90   XYZ
    dof rx
    limits (-10.0 170.0)
  end
  begin
     id 20
     name lwrist
     direction 1 -4.48994e-011 4.76442e-027   
     length 1.74954   
     axis -3.27502e-015 90 90   XYZ
    dof ry
    limits (-180.0 0.0)
 end
  begin
     id 21 
     name lhand
     direction 1 -4.48945e-011 9.531e-027   
     length 0.593861   
     axis -6.08098e-015 90 90   XYZ
    dof rx rz
    limits (-90.0 90.0)
           (-45.0 45.0)
  end
  begin
     id 22 
     name lfingers
     direction 1 -4.48945e-011 1.9062e-026   
     length 0.478786   
     axis -1.21619e-014 90 90   XYZ
    dof rx
    limits (0.0 90.0)
  end
  begin
     id 23
     name lthumb
     direction 0.707107 -6.34904e-011 0.707107   
     length 0.687444   
     axis -90 45 -9.86923e-015   XYZ
    dof rx rz
    limits (-45.0 45.0)
           (-45.0 45.0)
  end
  begin
     id 24 
     name rclavicle
     direction -0.940466 0.338394 0.0318182   
     length 3.51226  
     axis 0 0 0   XYZ 
    dof ry rz
    limits (-10.0 20.0)
           (-20.0 0.0)
  end
  begin
     id 25 
     name rhumerus
     direction -1 -4.48976e-011 2.0905e-027  
     length 5.73799   
     axis 180 30 90   XYZ
    dof rx ry rz
    limits (-90.0 60.0)
           (-90.0 90.0)
           (-90.0 90.0)
  end
  begin
     id 26 
     name rradius
     direction -1 -4.48968e-011 -9.39692e-029   
     length 3.57916   
     axis 180 30 90   XYZ
    dof rx
    limits (-10.0 170.0)
  end
  begin
     id 27 
     name rwrist
     direction -1 -4.48959e-011 4.7652e-027   
     length 1.78958   
     axis -3.27502e-015 -90 -90   XYZ
    dof ry
    limits (-180.0 0.0)
  end
  begin
     id 28
     name rhand
     direction -1 -4.49042e-011 9.5267e-027   
     length 0.615577   
     axis -6.08098e-015 -90 -90   XYZ
    dof rx rz
    limits (-90.0 90.0)
           (-45.0 45.0)
  end
  begin
     id 29
     name rfingers
     direction -1 -4.48935e-011 1.90629e-026   
     length 0.496294   
     axis -1.21619e-014 -90 -90   XYZ
    dof rx
    limits (0.0 90.0)
  end
  begin
     id 30
     name rthumb
     direction -0.707107 -6.34977e-011 0.707107   
     length 0.712582   
     axis -90 -45 9.86923e-015   XYZ
    dof rx rz
    limits (-45.0 45.0)
           (-45.0 45.0)
  end
:hierarchy
  begin
    root lhipjoint rhipjoint lowerback
    lhipjoint lfemur
    lfemur ltibia
    ltibia lfoot
    lfoot ltoes
    rhipjoint rfemur
    rfemur rtibia
    rtibia rfoot
    rfoot rtoes
    lowerback upperback
    upperback thorax
    thorax lowerneck lclavicle rclavicle
    lowerneck upperneck
    upperneck head
    lclavicle lhumerus
    lhumerus lradius
    lradius lwrist
    lwrist lhand lthumb
    lhand lfingers
    rclavicle rhumerus
    rhumerus rradius
    rradius rwrist
    rwrist rhand rthumb
    rhand rfingers
  end

#!OML:ASF H:\Terrain\Patient Classification 1\PaulMetrics\March17Take5\PaulMetrics.ASF
:FULLY-SPECIFIED
:DEGREES
1069
root 14.8232 17.4452 -15.6471 -2.28761 -58.3777 9.18251
lowerback 1.67242 0.735388 -6.47964
upperback -2.49167 0.700239 -1.19346
thorax -3.58613 0.494353 2.36199
lowerneck -5.08583 3.13378 4.84222
upperneck 5.14656 4.03506 -3.45525
head 2.73217 1.99536 -1.80623
rclavicle -7.02098e-014 -1.30701e-014
rhumerus -5.0006 20.5864 -81.2265
rradius 95.3548
rwrist -29.4484
rhand -20.2185 -24.15
rfingers 7.12502
rthumb 6.12884 -54.0413
lclavicle -7.02098e-014 -1.30701e-014
lhumerus -3.72984 -10.193 76.9206
lradius 100.801
lwrist 35.4342
lhand -28.6767 -29.9709
lfingers 7.12502
lthumb -2.0395 -0.000925771
rfemur -10.7745 3.23596 13.292
rtibia 25.0393
rfoot -17.5411 -19.8542
rtoes -12.1832
lfemur -14.6768 -3.73152 -15.4792
ltibia 22.599
lfoot -14.6112 11.4468
ltoes -4.51018
1070
root 14.8219 17.4368 -15.6587 -2.12868 -58.3399 9.09197
lowerback 1.64741 0.649048 -6.51052
upperback -2.53603 0.587154 -1.10556
thorax -3.6096 0.442023 2.47578
lowerneck -5.17256 3.19004 4.61343
upperneck 5.38507 4.11434 -3.24522
head 2.8187 2.03651 -1.69121
rclavicle 7.74165e-014 -1.04113e-014
rhumerus -4.08349 20.8892 -80.8375
rradius 96.8108
rwrist -29.2058
rhand -20.8897 -24.45
rfingers 7.12502
rthumb 5.48087 -54.3591
lclavicle 7.74165e-014 -1.04113e-014
lhumerus -3.25544 -10.3343 76.8334
lradius 103.099
lwrist 34.9697
lhand -29.0352 -29.9387
lfingers 7.12502
lthumb -2.38572 0.0276698
rfemur -11.0425 3.07521 13.3535
rtibia 25.2996
rfoot -17.5679 -19.7307
rtoes -12.3549
lfemur -14.8233 -3.67356 -15.3721
ltibia 22.631
lfoot -14.3404 11.3587
ltoes -6.35235
1071
root 14.8192 17.4341 -15.667 -1.77071 -58.2534 8.76484
lowerback 1.56906 0.576634 -6.33083
upperback -2.52844 0.507735 -1.00683
thorax -3.54792 0.397863 2.48243
lowerneck -5.53899 3.21714 4.72788
upperneck 5.78233 4.14944 -3.49767
head 3.03677 2.0458 -1.79076
rclavicle 6.34529e-014 -4.32357e-015
rhumerus -3.22266 20.8693 -80.382
rradius 98.4002
rwrist -29.1697
rhand -20.4749 -24.4161
rfingers 7.12502
rthumb 5.8813 -54.3144
lclavicle 6.34529e-014 -4.32357e-015
lhumerus -2.6385 -10.5498 76.636
lradius 105.432
lwrist 34.985
lhand -29.1741 -29.6981
lfingers 7.12502
lthumb -2.51987 0.266737
rfemur -11.1872 2.84654 13.5483
rtibia 25.4056
rfoot -17.6301 -19.5484
rtoes -11.7303
lfemur -15.0211 -3.70668 -15.1352
ltibia 22.7548
lfoot -14.2468 11.2659
ltoes -6.87083
1072
root 14.8144 17.4427 -15.672 -1.52493 -58.2559 8.49105
lowerback 1.54132 0.59735 -6.18203
upperback -2.51323 0.547461 -0.911553
thorax -3.51841 0.414571 2.49639
lowerneck -5.63132 3.18299 4.78531
upperneck 5.89564 4.11303 -3.72514
head 3.10091 2.02041 -1.87834
rclavicle -7.61468e-014 -9.87711e-016
rhumerus -2.58 20.5747 -79.8286
rradius 100.115
rwrist -29.017
rhand -19.6603 -24.1965
rfingers 7.12502
rthumb 6.66776 -54.0715
lclavicle -7.61468e-014 -9.87711e-016
lhumerus -2.00307 -10.836 76.5372
lradius 107.869
lwrist 35.5761
lhand -29.0426 -29.5435
lfingers 7.12502
lthumb -2.39287 0.422813
rfemur -11.2233 2.64617 13.7275
rtibia 25.5058
rfoot -17.6044 -19.4232
rtoes -11.7576
lfemur -15.111 -3.50413 -14.9615
ltibia 22.8344
lfoot -14.1754 11.2108
ltoes -8.17461
1073
root 14.8099 17.4473 -15.6802 -1.80343 -58.3804 8.72773
lowerback 1.61582 0.681516 -6.33618
upperback -2.49292 0.650416 -0.894995
thorax -3.55182 0.470713 2.59405
lowerneck -5.50063 3.12998 4.68777
upperneck 5.82428 4.05237 -3.69907
head 3.04466 1.98998 -1.85596
rclavicle -1.07146e-014 9.7653e-015
rhumerus -1.90744 20.3157 -79.3946
rradius 101.686
rwrist -28.3838
rhand -19.268 -24.1284
rfingers 7.12502
rthumb 7.04648 -53.9911
lclavicle -1.07146e-014 9.7653e-015
lhumerus -1.44122 -11.2704 76.6683
lradius 110.125
lwrist 35.759
lhand -29.2392 -29.6383
lfingers 7.12502
lthumb -2.58269 0.325809
rfemur -11.2486 2.52132 13.6299
rtibia 25.6778
rfoot -17.5765 -19.3556
rtoes -13.0382
lfemur -15.0177 -3.3292 -15.0724
ltibia 22.8261
lfoot -14.0998 11.2634
ltoes -8.65549
1074
root 14.81 17.4437 -15.6938 -2.44255 -58.4392 9.31004
lowerback 1.77437 0.725807 -6.63519
upperback -2.42793 0.687565 -0.943626
thorax -3.58254 0.495701 2.70765
lowerneck -5.44486 3.11384 4.58154
upperneck 5.78393 4.03649 -3.63501
head 3.01403 1.98228 -1.81653
rclavicle 5.43451e-014 2.01021e-014
rhumerus -1.05798 20.3002 -79.076
rradius 103.048
rwrist -27.806
rhand -19.2509 -24.2536
rfingers 7.12502
rthumb 7.06293 -54.1158
lclavicle 5.43451e-014 2.01021e-014
lhumerus -0.838945 -11.4956 76.8102
lradius 112.117
lwrist 35.6691
lhand -29.0779 -29.7399
lfingers 7.12502
lthumb -2.42696 0.226022
rfemur -11.2662 2.4138 13.3351
rtibia 25.8962
rfoot -17.7146 -19.1986
rtoes -13.886
lfemur -14.8342 -3.33345 -15.3743
ltibia 22.7849
lfoot -14.0969 11.374
ltoes -8.27562
